<mxfile host="app.diagrams.net" modified="2023-08-14T16:59:12.700Z" agent="Mozilla/5.0 (Windows NT 10.0; Win64; x64) AppleWebKit/537.36 (KHTML, like Gecko) Chrome/115.0.0.0 Safari/537.36 Edg/115.0.1901.203" etag="irlZrfZ3YL6fMM2H7UC-" version="21.6.8" type="github">
  <diagram name="Page-1" id="Yq8iLTllmmIJsQNqA7G1">
    <mxGraphModel dx="2074" dy="764" grid="1" gridSize="10" guides="1" tooltips="1" connect="1" arrows="1" fold="1" page="0" pageScale="1" pageWidth="827" pageHeight="1169" math="0" shadow="0">
      <root>
        <mxCell id="0" />
        <mxCell id="1" parent="0" />
        <mxCell id="AAx9Vm6-F2RzvXeDqiKK-47" value="" style="endArrow=classic;html=1;rounded=0;edgeStyle=orthogonalEdgeStyle;entryX=0.5;entryY=0;entryDx=0;entryDy=0;fillColor=#97D077;strokeColor=#1A1A1A;" parent="1" target="AAx9Vm6-F2RzvXeDqiKK-51" edge="1">
          <mxGeometry width="50" height="50" relative="1" as="geometry">
            <mxPoint x="430" y="120" as="sourcePoint" />
            <mxPoint x="-100" y="120" as="targetPoint" />
          </mxGeometry>
        </mxCell>
        <mxCell id="AAx9Vm6-F2RzvXeDqiKK-1" value="Revision Tool" style="rounded=0;whiteSpace=wrap;html=1;strokeColor=#1A1A1A;" parent="1" vertex="1">
          <mxGeometry x="380" y="20" width="120" height="60" as="geometry" />
        </mxCell>
        <mxCell id="AAx9Vm6-F2RzvXeDqiKK-7" value="" style="endArrow=classic;html=1;rounded=0;exitX=0.5;exitY=1;exitDx=0;exitDy=0;fillColor=#6FE607;strokeColor=#1A1A1A;" parent="1" edge="1">
          <mxGeometry width="50" height="50" relative="1" as="geometry">
            <mxPoint x="439.58" y="80" as="sourcePoint" />
            <mxPoint x="439.58" y="150" as="targetPoint" />
          </mxGeometry>
        </mxCell>
        <mxCell id="AAx9Vm6-F2RzvXeDqiKK-8" value="User Access Level" style="rounded=0;whiteSpace=wrap;html=1;strokeColor=#1A1A1A;" parent="1" vertex="1">
          <mxGeometry x="380" y="150" width="120" height="60" as="geometry" />
        </mxCell>
        <mxCell id="AAx9Vm6-F2RzvXeDqiKK-11" value="Teacher&amp;nbsp;" style="rounded=0;whiteSpace=wrap;html=1;strokeColor=#1A1A1A;" parent="1" vertex="1">
          <mxGeometry x="380" y="260" width="120" height="60" as="geometry" />
        </mxCell>
        <mxCell id="AAx9Vm6-F2RzvXeDqiKK-25" value="Flashcard Builder" style="rounded=0;whiteSpace=wrap;html=1;strokeColor=#1A1A1A;" parent="1" vertex="1">
          <mxGeometry x="910" y="260" width="120" height="60" as="geometry" />
        </mxCell>
        <mxCell id="AAx9Vm6-F2RzvXeDqiKK-28" value="" style="endArrow=classic;html=1;rounded=0;entryX=0.5;entryY=0;entryDx=0;entryDy=0;strokeColor=#1A1A1A;" parent="1" edge="1">
          <mxGeometry width="50" height="50" relative="1" as="geometry">
            <mxPoint x="439.58" y="210" as="sourcePoint" />
            <mxPoint x="440.08" y="259.9999999999999" as="targetPoint" />
          </mxGeometry>
        </mxCell>
        <mxCell id="AAx9Vm6-F2RzvXeDqiKK-29" value="Assignments set by Teacher." style="rounded=0;whiteSpace=wrap;html=1;strokeColor=#1A1A1A;" parent="1" vertex="1">
          <mxGeometry x="1070" y="460" width="120" height="60" as="geometry" />
        </mxCell>
        <mxCell id="AAx9Vm6-F2RzvXeDqiKK-35" value="Technician&amp;nbsp;&lt;br&gt;" style="rounded=0;whiteSpace=wrap;html=1;strokeColor=#1A1A1A;" parent="1" vertex="1">
          <mxGeometry x="540" y="260" width="120" height="60" as="geometry" />
        </mxCell>
        <mxCell id="AAx9Vm6-F2RzvXeDqiKK-42" value="" style="endArrow=classic;html=1;rounded=0;edgeStyle=orthogonalEdgeStyle;entryX=0.5;entryY=0;entryDx=0;entryDy=0;strokeColor=#1A1A1A;" parent="1" target="AAx9Vm6-F2RzvXeDqiKK-35" edge="1">
          <mxGeometry width="50" height="50" relative="1" as="geometry">
            <mxPoint x="430" y="230" as="sourcePoint" />
            <mxPoint x="620" y="230" as="targetPoint" />
          </mxGeometry>
        </mxCell>
        <mxCell id="AAx9Vm6-F2RzvXeDqiKK-43" value="" style="endArrow=classic;html=1;rounded=0;edgeStyle=orthogonalEdgeStyle;entryX=0.5;entryY=0;entryDx=0;entryDy=0;strokeColor=#1A1A1A;" parent="1" edge="1">
          <mxGeometry width="50" height="50" relative="1" as="geometry">
            <mxPoint x="430" y="230" as="sourcePoint" />
            <mxPoint x="280" y="259.9999999999999" as="targetPoint" />
          </mxGeometry>
        </mxCell>
        <mxCell id="AAx9Vm6-F2RzvXeDqiKK-44" value="" style="endArrow=classic;html=1;rounded=0;edgeStyle=orthogonalEdgeStyle;entryX=0.5;entryY=0;entryDx=0;entryDy=0;strokeColor=#1A1A1A;" parent="1" edge="1">
          <mxGeometry width="50" height="50" relative="1" as="geometry">
            <mxPoint x="430" y="120" as="sourcePoint" />
            <mxPoint x="970" y="150" as="targetPoint" />
          </mxGeometry>
        </mxCell>
        <mxCell id="AAx9Vm6-F2RzvXeDqiKK-51" value="Gamification&amp;nbsp;" style="rounded=0;whiteSpace=wrap;html=1;strokeColor=#1A1A1A;" parent="1" vertex="1">
          <mxGeometry x="-130" y="150" width="120" height="60" as="geometry" />
        </mxCell>
        <mxCell id="AAx9Vm6-F2RzvXeDqiKK-55" value="" style="endArrow=classic;html=1;rounded=0;edgeStyle=orthogonalEdgeStyle;entryX=0.5;entryY=0;entryDx=0;entryDy=0;strokeColor=#1A1A1A;" parent="1" target="AAx9Vm6-F2RzvXeDqiKK-58" edge="1">
          <mxGeometry width="50" height="50" relative="1" as="geometry">
            <mxPoint x="970" y="220" as="sourcePoint" />
            <mxPoint x="1190" y="220" as="targetPoint" />
          </mxGeometry>
        </mxCell>
        <mxCell id="AAx9Vm6-F2RzvXeDqiKK-56" value="" style="endArrow=classic;html=1;rounded=0;edgeStyle=orthogonalEdgeStyle;entryX=0.5;entryY=0;entryDx=0;entryDy=0;strokeColor=#1A1A1A;" parent="1" target="AAx9Vm6-F2RzvXeDqiKK-57" edge="1">
          <mxGeometry width="50" height="50" relative="1" as="geometry">
            <mxPoint x="970" y="220" as="sourcePoint" />
            <mxPoint x="820" y="250" as="targetPoint" />
          </mxGeometry>
        </mxCell>
        <mxCell id="sEhXzYF274ggxBGAK_F4-48" style="edgeStyle=orthogonalEdgeStyle;rounded=0;orthogonalLoop=1;jettySize=auto;html=1;exitX=0.5;exitY=1;exitDx=0;exitDy=0;entryX=0.5;entryY=0;entryDx=0;entryDy=0;strokeColor=#1A1A1A;" parent="1" source="AAx9Vm6-F2RzvXeDqiKK-57" target="AAx9Vm6-F2RzvXeDqiKK-60" edge="1">
          <mxGeometry relative="1" as="geometry" />
        </mxCell>
        <mxCell id="AAx9Vm6-F2RzvXeDqiKK-57" value="Question Section" style="rounded=0;whiteSpace=wrap;html=1;strokeColor=#1A1A1A;" parent="1" vertex="1">
          <mxGeometry x="750" y="260" width="120" height="60" as="geometry" />
        </mxCell>
        <mxCell id="sEhXzYF274ggxBGAK_F4-51" value="" style="edgeStyle=orthogonalEdgeStyle;rounded=0;orthogonalLoop=1;jettySize=auto;html=1;strokeColor=#1A1A1A;" parent="1" source="AAx9Vm6-F2RzvXeDqiKK-58" target="AAx9Vm6-F2RzvXeDqiKK-65" edge="1">
          <mxGeometry relative="1" as="geometry" />
        </mxCell>
        <mxCell id="AAx9Vm6-F2RzvXeDqiKK-58" value="Assignment Section" style="rounded=0;whiteSpace=wrap;html=1;strokeColor=#1A1A1A;" parent="1" vertex="1">
          <mxGeometry x="1070" y="260" width="120" height="60" as="geometry" />
        </mxCell>
        <mxCell id="sEhXzYF274ggxBGAK_F4-49" style="edgeStyle=orthogonalEdgeStyle;rounded=0;orthogonalLoop=1;jettySize=auto;html=1;exitX=0.5;exitY=1;exitDx=0;exitDy=0;entryX=0.5;entryY=0;entryDx=0;entryDy=0;strokeColor=#1A1A1A;" parent="1" source="AAx9Vm6-F2RzvXeDqiKK-60" target="sEhXzYF274ggxBGAK_F4-26" edge="1">
          <mxGeometry relative="1" as="geometry" />
        </mxCell>
        <mxCell id="AAx9Vm6-F2RzvXeDqiKK-60" value="AI-Generated Questions" style="rounded=0;whiteSpace=wrap;html=1;strokeColor=#1A1A1A;" parent="1" vertex="1">
          <mxGeometry x="750" y="360" width="120" height="60" as="geometry" />
        </mxCell>
        <mxCell id="sEhXzYF274ggxBGAK_F4-52" value="" style="edgeStyle=orthogonalEdgeStyle;rounded=0;orthogonalLoop=1;jettySize=auto;html=1;strokeColor=#1A1A1A;" parent="1" source="AAx9Vm6-F2RzvXeDqiKK-65" target="AAx9Vm6-F2RzvXeDqiKK-29" edge="1">
          <mxGeometry relative="1" as="geometry" />
        </mxCell>
        <mxCell id="AAx9Vm6-F2RzvXeDqiKK-65" value="List of Assignments" style="rounded=0;whiteSpace=wrap;html=1;strokeColor=#1A1A1A;" parent="1" vertex="1">
          <mxGeometry x="1070" y="360" width="120" height="60" as="geometry" />
        </mxCell>
        <mxCell id="AAx9Vm6-F2RzvXeDqiKK-72" value="" style="endArrow=classic;html=1;rounded=0;strokeColor=#1A1A1A;" parent="1" edge="1">
          <mxGeometry width="50" height="50" relative="1" as="geometry">
            <mxPoint x="599.58" y="320" as="sourcePoint" />
            <mxPoint x="599.58" y="360" as="targetPoint" />
          </mxGeometry>
        </mxCell>
        <mxCell id="AAx9Vm6-F2RzvXeDqiKK-75" value="Logins are stored in a database and encrypted." style="rounded=0;whiteSpace=wrap;html=1;strokeColor=#1A1A1A;" parent="1" vertex="1">
          <mxGeometry x="540" y="450" width="120" height="60" as="geometry" />
        </mxCell>
        <mxCell id="AAx9Vm6-F2RzvXeDqiKK-82" value="" style="endArrow=classic;html=1;rounded=0;strokeColor=#1A1A1A;" parent="1" edge="1">
          <mxGeometry width="50" height="50" relative="1" as="geometry">
            <mxPoint x="809.71" y="510" as="sourcePoint" />
            <mxPoint x="810.13" y="550" as="targetPoint" />
          </mxGeometry>
        </mxCell>
        <mxCell id="AAx9Vm6-F2RzvXeDqiKK-83" value="Interactive elements" style="rounded=0;whiteSpace=wrap;html=1;strokeColor=#1A1A1A;" parent="1" vertex="1">
          <mxGeometry x="750" y="550" width="120" height="60" as="geometry" />
        </mxCell>
        <mxCell id="AAx9Vm6-F2RzvXeDqiKK-84" value="" style="endArrow=classic;html=1;rounded=0;entryX=0.5;entryY=0;entryDx=0;entryDy=0;exitX=0.5;exitY=1;exitDx=0;exitDy=0;strokeColor=#1A1A1A;" parent="1" source="AAx9Vm6-F2RzvXeDqiKK-51" target="AAx9Vm6-F2RzvXeDqiKK-85" edge="1">
          <mxGeometry width="50" height="50" relative="1" as="geometry">
            <mxPoint x="-80" y="210" as="sourcePoint" />
            <mxPoint x="-80" y="250" as="targetPoint" />
          </mxGeometry>
        </mxCell>
        <mxCell id="sEhXzYF274ggxBGAK_F4-71" value="" style="edgeStyle=orthogonalEdgeStyle;rounded=0;orthogonalLoop=1;jettySize=auto;html=1;strokeColor=#1A1A1A;" parent="1" source="AAx9Vm6-F2RzvXeDqiKK-85" target="AAx9Vm6-F2RzvXeDqiKK-51" edge="1">
          <mxGeometry relative="1" as="geometry" />
        </mxCell>
        <mxCell id="AAx9Vm6-F2RzvXeDqiKK-85" value="Leaderboards" style="rounded=0;whiteSpace=wrap;html=1;strokeColor=#1A1A1A;" parent="1" vertex="1">
          <mxGeometry x="-130" y="260" width="120" height="60" as="geometry" />
        </mxCell>
        <mxCell id="AAx9Vm6-F2RzvXeDqiKK-87" value="" style="endArrow=classic;html=1;rounded=0;edgeStyle=orthogonalEdgeStyle;entryX=0.5;entryY=0;entryDx=0;entryDy=0;strokeColor=#1A1A1A;" parent="1" target="AAx9Vm6-F2RzvXeDqiKK-88" edge="1">
          <mxGeometry width="50" height="50" relative="1" as="geometry">
            <mxPoint x="-70" y="230" as="sourcePoint" />
            <mxPoint x="100" y="260" as="targetPoint" />
          </mxGeometry>
        </mxCell>
        <mxCell id="AAx9Vm6-F2RzvXeDqiKK-88" value="Achievements" style="rounded=0;whiteSpace=wrap;html=1;strokeColor=#1A1A1A;" parent="1" vertex="1">
          <mxGeometry x="30" y="260" width="120" height="60" as="geometry" />
        </mxCell>
        <mxCell id="AAx9Vm6-F2RzvXeDqiKK-91" value="Student&amp;nbsp;&amp;nbsp;" style="rounded=0;whiteSpace=wrap;html=1;strokeColor=#1A1A1A;" parent="1" vertex="1">
          <mxGeometry x="220" y="260" width="120" height="60" as="geometry" />
        </mxCell>
        <mxCell id="AAx9Vm6-F2RzvXeDqiKK-92" value="" style="endArrow=classic;html=1;rounded=0;strokeColor=#1A1A1A;" parent="1" edge="1">
          <mxGeometry width="50" height="50" relative="1" as="geometry">
            <mxPoint x="280" y="320" as="sourcePoint" />
            <mxPoint x="279.58" y="360" as="targetPoint" />
          </mxGeometry>
        </mxCell>
        <mxCell id="AAx9Vm6-F2RzvXeDqiKK-93" value="Two-Factor Authentication option" style="rounded=0;whiteSpace=wrap;html=1;strokeColor=#1A1A1A;" parent="1" vertex="1">
          <mxGeometry x="220" y="360" width="120" height="60" as="geometry" />
        </mxCell>
        <mxCell id="sEhXzYF274ggxBGAK_F4-45" style="edgeStyle=orthogonalEdgeStyle;rounded=0;orthogonalLoop=1;jettySize=auto;html=1;exitX=0.5;exitY=1;exitDx=0;exitDy=0;entryX=0.5;entryY=0;entryDx=0;entryDy=0;strokeColor=#1A1A1A;" parent="1" source="AAx9Vm6-F2RzvXeDqiKK-98" target="AAx9Vm6-F2RzvXeDqiKK-75" edge="1">
          <mxGeometry relative="1" as="geometry" />
        </mxCell>
        <mxCell id="AAx9Vm6-F2RzvXeDqiKK-98" value="Sets up all logins to be used through inputs" style="rounded=0;whiteSpace=wrap;html=1;strokeColor=#1A1A1A;" parent="1" vertex="1">
          <mxGeometry x="540" y="360" width="120" height="60" as="geometry" />
        </mxCell>
        <mxCell id="sEhXzYF274ggxBGAK_F4-2" value="Revision Section" style="rounded=0;whiteSpace=wrap;html=1;strokeColor=#1A1A1A;" parent="1" vertex="1">
          <mxGeometry x="910" y="150" width="120" height="60" as="geometry" />
        </mxCell>
        <mxCell id="sEhXzYF274ggxBGAK_F4-3" value="" style="endArrow=classic;html=1;rounded=0;strokeColor=#1A1A1A;" parent="1" edge="1">
          <mxGeometry width="50" height="50" relative="1" as="geometry">
            <mxPoint x="-70.08" y="320" as="sourcePoint" />
            <mxPoint x="-70.50000000000001" y="360" as="targetPoint" />
          </mxGeometry>
        </mxCell>
        <mxCell id="sEhXzYF274ggxBGAK_F4-46" style="edgeStyle=orthogonalEdgeStyle;rounded=0;orthogonalLoop=1;jettySize=auto;html=1;exitX=0.5;exitY=1;exitDx=0;exitDy=0;entryX=0.5;entryY=0;entryDx=0;entryDy=0;strokeColor=#1A1A1A;" parent="1" source="sEhXzYF274ggxBGAK_F4-4" target="sEhXzYF274ggxBGAK_F4-7" edge="1">
          <mxGeometry relative="1" as="geometry" />
        </mxCell>
        <mxCell id="sEhXzYF274ggxBGAK_F4-4" value="Students are ranked based on &quot;points&quot; from attempting questions" style="rounded=0;whiteSpace=wrap;html=1;strokeColor=#1A1A1A;" parent="1" vertex="1">
          <mxGeometry x="-130" y="360" width="120" height="60" as="geometry" />
        </mxCell>
        <mxCell id="sEhXzYF274ggxBGAK_F4-7" value="Multiplier effects during exam season" style="rounded=0;whiteSpace=wrap;html=1;strokeColor=#1A1A1A;" parent="1" vertex="1">
          <mxGeometry x="-130" y="450" width="120" height="60" as="geometry" />
        </mxCell>
        <mxCell id="sEhXzYF274ggxBGAK_F4-8" value="" style="endArrow=classic;html=1;rounded=0;strokeColor=#1A1A1A;" parent="1" edge="1">
          <mxGeometry width="50" height="50" relative="1" as="geometry">
            <mxPoint x="90.12999999999998" y="320" as="sourcePoint" />
            <mxPoint x="89.70999999999997" y="360" as="targetPoint" />
          </mxGeometry>
        </mxCell>
        <mxCell id="sEhXzYF274ggxBGAK_F4-9" value="Students sent certificates to their email once x amount of questions are done" style="rounded=0;whiteSpace=wrap;html=1;strokeColor=#1A1A1A;" parent="1" vertex="1">
          <mxGeometry x="30" y="360" width="120" height="60" as="geometry" />
        </mxCell>
        <mxCell id="sEhXzYF274ggxBGAK_F4-43" style="edgeStyle=orthogonalEdgeStyle;rounded=0;orthogonalLoop=1;jettySize=auto;html=1;exitX=0.5;exitY=1;exitDx=0;exitDy=0;entryX=0.5;entryY=0;entryDx=0;entryDy=0;strokeColor=#1A1A1A;" parent="1" source="sEhXzYF274ggxBGAK_F4-17" target="sEhXzYF274ggxBGAK_F4-39" edge="1">
          <mxGeometry relative="1" as="geometry">
            <Array as="points">
              <mxPoint x="1290" y="430" />
              <mxPoint x="1290" y="430" />
            </Array>
          </mxGeometry>
        </mxCell>
        <mxCell id="sEhXzYF274ggxBGAK_F4-17" value="Settings" style="rounded=0;whiteSpace=wrap;html=1;strokeColor=#1A1A1A;" parent="1" vertex="1">
          <mxGeometry x="1230" y="360" width="120" height="60" as="geometry" />
        </mxCell>
        <mxCell id="sEhXzYF274ggxBGAK_F4-25" value="" style="endArrow=classic;html=1;rounded=0;edgeStyle=orthogonalEdgeStyle;entryX=0.5;entryY=0;entryDx=0;entryDy=0;strokeColor=#1A1A1A;" parent="1" edge="1">
          <mxGeometry width="50" height="50" relative="1" as="geometry">
            <mxPoint x="810" y="530" as="sourcePoint" />
            <mxPoint x="970" y="550" as="targetPoint" />
          </mxGeometry>
        </mxCell>
        <mxCell id="sEhXzYF274ggxBGAK_F4-26" value="Answer form" style="rounded=0;whiteSpace=wrap;html=1;strokeColor=#1A1A1A;" parent="1" vertex="1">
          <mxGeometry x="750" y="450" width="120" height="60" as="geometry" />
        </mxCell>
        <mxCell id="sEhXzYF274ggxBGAK_F4-27" value="AI-Marking" style="rounded=0;whiteSpace=wrap;html=1;strokeColor=#1A1A1A;" parent="1" vertex="1">
          <mxGeometry x="910" y="550" width="120" height="60" as="geometry" />
        </mxCell>
        <mxCell id="sEhXzYF274ggxBGAK_F4-31" value="" style="endArrow=classic;html=1;rounded=0;exitX=0.5;exitY=1;exitDx=0;exitDy=0;entryX=0.5;entryY=0;entryDx=0;entryDy=0;entryPerimeter=0;strokeColor=#1A1A1A;" parent="1" edge="1">
          <mxGeometry width="50" height="50" relative="1" as="geometry">
            <mxPoint x="809.71" y="610" as="sourcePoint" />
            <mxPoint x="809.71" y="650" as="targetPoint" />
          </mxGeometry>
        </mxCell>
        <mxCell id="sEhXzYF274ggxBGAK_F4-33" value="Hints" style="rounded=0;whiteSpace=wrap;html=1;strokeColor=#1A1A1A;" parent="1" vertex="1">
          <mxGeometry x="750" y="650" width="120" height="60" as="geometry" />
        </mxCell>
        <mxCell id="sEhXzYF274ggxBGAK_F4-36" value="" style="endArrow=classic;html=1;rounded=0;edgeStyle=orthogonalEdgeStyle;entryX=0.5;entryY=0;entryDx=0;entryDy=0;strokeColor=#1A1A1A;" parent="1" target="sEhXzYF274ggxBGAK_F4-37" edge="1">
          <mxGeometry width="50" height="50" relative="1" as="geometry">
            <mxPoint x="810" y="630" as="sourcePoint" />
            <mxPoint x="970" y="649.9999999999998" as="targetPoint" />
          </mxGeometry>
        </mxCell>
        <mxCell id="sEhXzYF274ggxBGAK_F4-37" value="Skip to next question" style="rounded=0;whiteSpace=wrap;html=1;strokeColor=#1A1A1A;" parent="1" vertex="1">
          <mxGeometry x="590" y="650" width="120" height="60" as="geometry" />
        </mxCell>
        <mxCell id="sEhXzYF274ggxBGAK_F4-38" value="" style="endArrow=classic;html=1;rounded=0;entryX=0.5;entryY=0;entryDx=0;entryDy=0;strokeColor=#1A1A1A;" parent="1" target="AAx9Vm6-F2RzvXeDqiKK-25" edge="1">
          <mxGeometry width="50" height="50" relative="1" as="geometry">
            <mxPoint x="969.71" y="210" as="sourcePoint" />
            <mxPoint x="970" y="240" as="targetPoint" />
          </mxGeometry>
        </mxCell>
        <mxCell id="sEhXzYF274ggxBGAK_F4-39" value="Option to set Assignments as done" style="rounded=0;whiteSpace=wrap;html=1;strokeColor=#1A1A1A;" parent="1" vertex="1">
          <mxGeometry x="1230" y="460" width="120" height="60" as="geometry" />
        </mxCell>
        <mxCell id="sEhXzYF274ggxBGAK_F4-40" value="Option to allow notifications for new Assignments via email" style="rounded=0;whiteSpace=wrap;html=1;strokeColor=#1A1A1A;" parent="1" vertex="1">
          <mxGeometry x="1390" y="460" width="120" height="60" as="geometry" />
        </mxCell>
        <mxCell id="sEhXzYF274ggxBGAK_F4-42" value="" style="endArrow=classic;html=1;rounded=0;edgeStyle=orthogonalEdgeStyle;entryX=0.5;entryY=0;entryDx=0;entryDy=0;strokeColor=#1A1A1A;" parent="1" target="sEhXzYF274ggxBGAK_F4-17" edge="1">
          <mxGeometry width="50" height="50" relative="1" as="geometry">
            <mxPoint x="1130" y="320" as="sourcePoint" />
            <mxPoint x="1280" y="320" as="targetPoint" />
          </mxGeometry>
        </mxCell>
        <mxCell id="sEhXzYF274ggxBGAK_F4-44" value="" style="endArrow=classic;html=1;rounded=0;edgeStyle=orthogonalEdgeStyle;entryX=0.5;entryY=0;entryDx=0;entryDy=0;strokeColor=#1A1A1A;" parent="1" target="sEhXzYF274ggxBGAK_F4-40" edge="1">
          <mxGeometry width="50" height="50" relative="1" as="geometry">
            <mxPoint x="1290" y="420" as="sourcePoint" />
            <mxPoint x="1460" y="420" as="targetPoint" />
          </mxGeometry>
        </mxCell>
        <mxCell id="sEhXzYF274ggxBGAK_F4-59" style="edgeStyle=orthogonalEdgeStyle;rounded=0;orthogonalLoop=1;jettySize=auto;html=1;entryX=0.5;entryY=0;entryDx=0;entryDy=0;strokeColor=#1A1A1A;" parent="1" source="sEhXzYF274ggxBGAK_F4-55" target="sEhXzYF274ggxBGAK_F4-58" edge="1">
          <mxGeometry relative="1" as="geometry" />
        </mxCell>
        <mxCell id="sEhXzYF274ggxBGAK_F4-55" value="End session" style="rounded=0;whiteSpace=wrap;html=1;strokeColor=#1A1A1A;" parent="1" vertex="1">
          <mxGeometry x="910" y="650" width="120" height="60" as="geometry" />
        </mxCell>
        <mxCell id="sEhXzYF274ggxBGAK_F4-57" value="" style="endArrow=classic;html=1;rounded=0;edgeStyle=orthogonalEdgeStyle;entryX=0.5;entryY=0;entryDx=0;entryDy=0;strokeColor=#1A1A1A;" parent="1" target="sEhXzYF274ggxBGAK_F4-55" edge="1">
          <mxGeometry width="50" height="50" relative="1" as="geometry">
            <mxPoint x="810" y="630" as="sourcePoint" />
            <mxPoint x="980" y="630" as="targetPoint" />
          </mxGeometry>
        </mxCell>
        <mxCell id="sEhXzYF274ggxBGAK_F4-61" style="edgeStyle=orthogonalEdgeStyle;rounded=0;orthogonalLoop=1;jettySize=auto;html=1;entryX=0.5;entryY=0;entryDx=0;entryDy=0;strokeColor=#1A1A1A;" parent="1" source="sEhXzYF274ggxBGAK_F4-58" target="sEhXzYF274ggxBGAK_F4-60" edge="1">
          <mxGeometry relative="1" as="geometry" />
        </mxCell>
        <mxCell id="sEhXzYF274ggxBGAK_F4-58" value="Report sent to teacher&amp;nbsp;" style="rounded=0;whiteSpace=wrap;html=1;strokeColor=#1A1A1A;" parent="1" vertex="1">
          <mxGeometry x="910" y="750" width="120" height="60" as="geometry" />
        </mxCell>
        <mxCell id="sEhXzYF274ggxBGAK_F4-69" style="edgeStyle=orthogonalEdgeStyle;rounded=0;orthogonalLoop=1;jettySize=auto;html=1;entryX=0.5;entryY=0;entryDx=0;entryDy=0;strokeColor=#1A1A1A;" parent="1" source="sEhXzYF274ggxBGAK_F4-60" target="sEhXzYF274ggxBGAK_F4-68" edge="1">
          <mxGeometry relative="1" as="geometry" />
        </mxCell>
        <mxCell id="sEhXzYF274ggxBGAK_F4-60" value="Total Marks" style="rounded=0;whiteSpace=wrap;html=1;strokeColor=#1A1A1A;" parent="1" vertex="1">
          <mxGeometry x="910" y="850" width="120" height="60" as="geometry" />
        </mxCell>
        <mxCell id="sEhXzYF274ggxBGAK_F4-62" value="" style="endArrow=classic;html=1;rounded=0;edgeStyle=orthogonalEdgeStyle;entryX=0.503;entryY=-0.065;entryDx=0;entryDy=0;entryPerimeter=0;strokeColor=#1A1A1A;" parent="1" target="sEhXzYF274ggxBGAK_F4-63" edge="1">
          <mxGeometry width="50" height="50" relative="1" as="geometry">
            <mxPoint x="970" y="830" as="sourcePoint" />
            <mxPoint x="1120" y="830" as="targetPoint" />
          </mxGeometry>
        </mxCell>
        <mxCell id="sEhXzYF274ggxBGAK_F4-63" value="AI-Feedback on the session" style="rounded=0;whiteSpace=wrap;html=1;strokeColor=#1A1A1A;" parent="1" vertex="1">
          <mxGeometry x="1070" y="850" width="120" height="60" as="geometry" />
        </mxCell>
        <mxCell id="sEhXzYF274ggxBGAK_F4-64" value="" style="endArrow=classic;html=1;rounded=0;edgeStyle=orthogonalEdgeStyle;entryX=0.5;entryY=0;entryDx=0;entryDy=0;strokeColor=#1A1A1A;" parent="1" target="sEhXzYF274ggxBGAK_F4-65" edge="1">
          <mxGeometry width="50" height="50" relative="1" as="geometry">
            <mxPoint x="970" y="830" as="sourcePoint" />
            <mxPoint x="840" y="830" as="targetPoint" />
          </mxGeometry>
        </mxCell>
        <mxCell id="sEhXzYF274ggxBGAK_F4-65" value="Name of student" style="rounded=0;whiteSpace=wrap;html=1;strokeColor=#1A1A1A;" parent="1" vertex="1">
          <mxGeometry x="750" y="850" width="120" height="60" as="geometry" />
        </mxCell>
        <mxCell id="sEhXzYF274ggxBGAK_F4-68" value="How long it took" style="rounded=0;whiteSpace=wrap;html=1;strokeColor=#1A1A1A;" parent="1" vertex="1">
          <mxGeometry x="910" y="950" width="120" height="60" as="geometry" />
        </mxCell>
      </root>
    </mxGraphModel>
  </diagram>
</mxfile>
